<svg version="1.1" xmlns="http://www.w3.org/2000/svg" xmlns:xlink="http://www.w3.org/1999/xlink" width="779.6250000000001" height="305"><style xmlns="http://www.w3.org/1999/xhtml"></style><defs/><g transform="translate(0,0)"><g><rect fill="rgb(0,0,0)" stroke="none" x="0" y="0" width="779.6250000000001" height="305" fill-opacity="0"/></g><g transform="translate(0,0) matrix(1,0,0,1,310,20)"><g><g transform="translate(0,0) scale(1.9,0.3)"><g><path fill="#ffe599" stroke="none" d="M 0 0 L 100 0 Q 100 0 100 0 L 100 100 Q 100 100 100 100 L 0 100 Q 0 100 0 100 L 0 0 Q 0 0 0 0 Z"/><g transform="scale(0.5263157894736842,3.3333333333333335)"><path fill="none" stroke="none" d="M 0 0 L 190 0 Q 190 0 190 0 L 190 30 Q 190 30 190 30 L 0 30 Q 0 30 0 30 L 0 0 Q 0 0 0 0 Z"/><path fill="none" stroke="#333333" d="M 0 0 M 0 0 L 190 0 Q 190 0 190 0 L 190 30 Q 190 30 190 30 L 0 30 Q 0 30 0 30 L 0 0 Q 0 0 0 0 Z" stroke-miterlimit="10" stroke-width="2"/></g></g></g></g></g><g transform="matrix(1,0,0,1,320,28)"><g><g><rect fill="rgb(0,0,0)" stroke="none" x="0" y="0" width="172" height="14" fill-opacity="0"/></g></g><g><g><rect fill="rgb(0,0,0)" stroke="none" x="0" y="0" width="172" height="14" fill-opacity="0"/></g></g><g><g><rect fill="rgb(0,0,0)" stroke="none" x="56.5625" y="0" width="60" height="14" fill-opacity="0"/></g></g><g><g><rect fill="rgb(0,0,0)" stroke="none" x="56.5625" y="0" width="60" height="14" fill-opacity="0"/></g><text fill="rgb(0, 0, 0)" stroke="none" font-family="Arial" font-size="12px" font-style="normal" font-weight="normal" text-decoration="" line-height="14px" x="56.5625" y="11">Application</text></g></g><g transform="translate(0,0) matrix(1,0,0,1,70,100)"><g><g transform="translate(0,0) scale(1.9,0.3)"><g><path fill="#b6d7a8" stroke="none" d="M 0 0 L 100 0 Q 100 0 100 0 L 100 100 Q 100 100 100 100 L 0 100 Q 0 100 0 100 L 0 0 Q 0 0 0 0 Z"/><g transform="scale(0.5263157894736842,3.3333333333333335)"><path fill="none" stroke="none" d="M 0 0 L 190 0 Q 190 0 190 0 L 190 30 Q 190 30 190 30 L 0 30 Q 0 30 0 30 L 0 0 Q 0 0 0 0 Z"/><path fill="none" stroke="#333333" d="M 0 0 M 0 0 L 190 0 Q 190 0 190 0 L 190 30 Q 190 30 190 30 L 0 30 Q 0 30 0 30 L 0 0 Q 0 0 0 0 Z" stroke-miterlimit="10" stroke-width="2"/></g></g></g></g></g><g transform="matrix(1,0,0,1,80,108)"><g><g><rect fill="rgb(0,0,0)" stroke="none" x="0" y="0" width="172" height="14" fill-opacity="0"/></g></g><g><g><rect fill="rgb(0,0,0)" stroke="none" x="0" y="0" width="172" height="14" fill-opacity="0"/></g></g><g><g><rect fill="rgb(0,0,0)" stroke="none" x="77.578125" y="0" width="18" height="14" fill-opacity="0"/></g></g><g><g><rect fill="rgb(0,0,0)" stroke="none" x="77.578125" y="0" width="18" height="14" fill-opacity="0"/></g><text fill="rgb(0, 0, 0)" stroke="none" font-family="Arial" font-size="12px" font-style="normal" font-weight="normal" text-decoration="" line-height="14px" x="77.578125" y="11">foo</text></g></g><g transform="translate(0,0) matrix(1,0,0,1,430,100)"><g><g transform="translate(0,0) scale(1.9,0.3)"><g><path fill="#b6d7a8" stroke="none" d="M 0 0 L 100 0 Q 100 0 100 0 L 100 100 Q 100 100 100 100 L 0 100 Q 0 100 0 100 L 0 0 Q 0 0 0 0 Z"/><g transform="scale(0.5263157894736842,3.3333333333333335)"><path fill="none" stroke="none" d="M 0 0 L 190 0 Q 190 0 190 0 L 190 30 Q 190 30 190 30 L 0 30 Q 0 30 0 30 L 0 0 Q 0 0 0 0 Z"/><path fill="none" stroke="#333333" d="M 0 0 M 0 0 L 190 0 Q 190 0 190 0 L 190 30 Q 190 30 190 30 L 0 30 Q 0 30 0 30 L 0 0 Q 0 0 0 0 Z" stroke-miterlimit="10" stroke-width="2"/></g></g></g></g></g><g transform="matrix(1,0,0,1,440,108)"><g><g><rect fill="rgb(0,0,0)" stroke="none" x="0" y="0" width="172" height="14" fill-opacity="0"/></g></g><g><g><rect fill="rgb(0,0,0)" stroke="none" x="0" y="0" width="172" height="14" fill-opacity="0"/></g></g><g><g><rect fill="rgb(0,0,0)" stroke="none" x="77.234375" y="0" width="18" height="14" fill-opacity="0"/></g></g><g><g><rect fill="rgb(0,0,0)" stroke="none" x="77.234375" y="0" width="18" height="14" fill-opacity="0"/></g><text fill="rgb(0, 0, 0)" stroke="none" font-family="Arial" font-size="12px" font-style="normal" font-weight="normal" text-decoration="" line-height="14px" x="77.234375" y="11">bar</text></g></g><g transform="translate(0,0) matrix(1,0,0,1,200,165)"><g><g transform="translate(0,0) scale(1.9,0.3)"><g><path fill="#9fc5e8" stroke="none" d="M 0 0 L 100 0 Q 100 0 100 0 L 100 100 Q 100 100 100 100 L 0 100 Q 0 100 0 100 L 0 0 Q 0 0 0 0 Z"/><g transform="scale(0.5263157894736842,3.3333333333333335)"><path fill="none" stroke="none" d="M 0 0 L 190 0 Q 190 0 190 0 L 190 30 Q 190 30 190 30 L 0 30 Q 0 30 0 30 L 0 0 Q 0 0 0 0 Z"/><path fill="none" stroke="#333333" d="M 0 0 M 0 0 L 190 0 Q 190 0 190 0 L 190 30 Q 190 30 190 30 L 0 30 Q 0 30 0 30 L 0 0 Q 0 0 0 0 Z" stroke-miterlimit="10" stroke-width="2"/></g></g></g></g></g><g transform="matrix(1,0,0,1,210,173)"><g><g><rect fill="rgb(0,0,0)" stroke="none" x="0" y="0" width="172" height="14" fill-opacity="0"/></g></g><g><g><rect fill="rgb(0,0,0)" stroke="none" x="0" y="0" width="172" height="14" fill-opacity="0"/></g></g><g><g><rect fill="rgb(0,0,0)" stroke="none" x="44.890625" y="0" width="83" height="14" fill-opacity="0"/></g></g><g><g><rect fill="rgb(0,0,0)" stroke="none" x="44.890625" y="0" width="83" height="14" fill-opacity="0"/></g><text fill="rgb(0, 0, 0)" stroke="none" font-family="Arial" font-size="12px" font-style="normal" font-weight="normal" text-decoration="" line-height="14px" x="45" y="11">foo</text><text fill="rgb(0, 0, 0)" stroke="none" font-family="Arial" font-size="12px" font-style="normal" font-weight="normal" text-decoration="" line-height="14px" x="62" y="11">-</text><text fill="rgb(0, 0, 0)" stroke="none" font-family="Arial" font-size="12px" font-style="normal" font-weight="normal" text-decoration="" line-height="14px" x="66" y="11">controller</text><text fill="rgb(0, 0, 0)" stroke="none" font-family="Arial" font-size="12px" font-style="normal" font-weight="normal" text-decoration="" line-height="14px" x="115" y="11">.</text><text fill="rgb(0, 0, 0)" stroke="none" font-family="Arial" font-size="12px" font-style="normal" font-weight="normal" text-decoration="" line-height="14px" x="118" y="11">js</text></g></g><g transform="translate(0,0) matrix(1,0,0,1,563.2083333333334,165)"><g><g transform="translate(0,0) scale(1.9,0.3)"><g><path fill="#9fc5e8" stroke="none" d="M 0 0 L 100 0 Q 100 0 100 0 L 100 100 Q 100 100 100 100 L 0 100 Q 0 100 0 100 L 0 0 Q 0 0 0 0 Z"/><g transform="scale(0.5263157894736842,3.3333333333333335)"><path fill="none" stroke="none" d="M 0 0 L 190 0 Q 190 0 190 0 L 190 30 Q 190 30 190 30 L 0 30 Q 0 30 0 30 L 0 0 Q 0 0 0 0 Z"/><path fill="none" stroke="#333333" d="M 0 0 M 0 0 L 190 0 Q 190 0 190 0 L 190 30 Q 190 30 190 30 L 0 30 Q 0 30 0 30 L 0 0 Q 0 0 0 0 Z" stroke-miterlimit="10" stroke-width="2"/></g></g></g></g></g><g transform="matrix(1,0,0,1,573,173)"><g><g><rect fill="rgb(0,0,0)" stroke="none" x="0" y="0" width="172" height="14" fill-opacity="0"/></g></g><g><g><rect fill="rgb(0,0,0)" stroke="none" x="0" y="0" width="172" height="14" fill-opacity="0"/></g></g><g><g><rect fill="rgb(0,0,0)" stroke="none" x="44.5625" y="0" width="84" height="14" fill-opacity="0"/></g></g><g><g><rect fill="rgb(0,0,0)" stroke="none" x="44.5625" y="0" width="84" height="14" fill-opacity="0"/></g><text fill="rgb(0, 0, 0)" stroke="none" font-family="Arial" font-size="12px" font-style="normal" font-weight="normal" text-decoration="" line-height="14px" x="45" y="11">bar</text><text fill="rgb(0, 0, 0)" stroke="none" font-family="Arial" font-size="12px" font-style="normal" font-weight="normal" text-decoration="" line-height="14px" x="62" y="11">-</text><text fill="rgb(0, 0, 0)" stroke="none" font-family="Arial" font-size="12px" font-style="normal" font-weight="normal" text-decoration="" line-height="14px" x="66" y="11">controller</text><text fill="rgb(0, 0, 0)" stroke="none" font-family="Arial" font-size="12px" font-style="normal" font-weight="normal" text-decoration="" line-height="14px" x="115" y="11">.</text><text fill="rgb(0, 0, 0)" stroke="none" font-family="Arial" font-size="12px" font-style="normal" font-weight="normal" text-decoration="" line-height="14px" x="119" y="11">js</text></g></g><g transform="translate(0,0) matrix(1,0,0,1,200,210)"><g><g transform="translate(0,0) scale(1.9,0.3)"><g><path fill="#9fc5e8" stroke="none" d="M 0 0 L 100 0 Q 100 0 100 0 L 100 100 Q 100 100 100 100 L 0 100 Q 0 100 0 100 L 0 0 Q 0 0 0 0 Z"/><g transform="scale(0.5263157894736842,3.3333333333333335)"><path fill="none" stroke="none" d="M 0 0 L 190 0 Q 190 0 190 0 L 190 30 Q 190 30 190 30 L 0 30 Q 0 30 0 30 L 0 0 Q 0 0 0 0 Z"/><path fill="none" stroke="#333333" d="M 0 0 M 0 0 L 190 0 Q 190 0 190 0 L 190 30 Q 190 30 190 30 L 0 30 Q 0 30 0 30 L 0 0 Q 0 0 0 0 Z" stroke-miterlimit="10" stroke-width="2"/></g></g></g></g></g><g transform="matrix(1,0,0,1,210,218)"><g><g><rect fill="rgb(0,0,0)" stroke="none" x="0" y="0" width="172" height="14" fill-opacity="0"/></g></g><g><g><rect fill="rgb(0,0,0)" stroke="none" x="0" y="0" width="172" height="14" fill-opacity="0"/></g></g><g><g><rect fill="rgb(0,0,0)" stroke="none" x="50.5625" y="0" width="72" height="14" fill-opacity="0"/></g></g><g><g><rect fill="rgb(0,0,0)" stroke="none" x="50.5625" y="0" width="72" height="14" fill-opacity="0"/></g><text fill="rgb(0, 0, 0)" stroke="none" font-family="Arial" font-size="12px" font-style="normal" font-weight="normal" text-decoration="" line-height="14px" x="51" y="11">foo</text><text fill="rgb(0, 0, 0)" stroke="none" font-family="Arial" font-size="12px" font-style="normal" font-weight="normal" text-decoration="" line-height="14px" x="67" y="11">-</text><text fill="rgb(0, 0, 0)" stroke="none" font-family="Arial" font-size="12px" font-style="normal" font-weight="normal" text-decoration="" line-height="14px" x="71" y="11">service</text><text fill="rgb(0, 0, 0)" stroke="none" font-family="Arial" font-size="12px" font-style="normal" font-weight="normal" text-decoration="" line-height="14px" x="109" y="11">.</text><text fill="rgb(0, 0, 0)" stroke="none" font-family="Arial" font-size="12px" font-style="normal" font-weight="normal" text-decoration="" line-height="14px" x="113" y="11">js</text></g></g><g transform="translate(0,0) matrix(1,0,0,1,563.2083333333334,210)"><g><g transform="translate(0,0) scale(1.9,0.3)"><g><path fill="#9fc5e8" stroke="none" d="M 0 0 L 100 0 Q 100 0 100 0 L 100 100 Q 100 100 100 100 L 0 100 Q 0 100 0 100 L 0 0 Q 0 0 0 0 Z"/><g transform="scale(0.5263157894736842,3.3333333333333335)"><path fill="none" stroke="none" d="M 0 0 L 190 0 Q 190 0 190 0 L 190 30 Q 190 30 190 30 L 0 30 Q 0 30 0 30 L 0 0 Q 0 0 0 0 Z"/><path fill="none" stroke="#333333" d="M 0 0 M 0 0 L 190 0 Q 190 0 190 0 L 190 30 Q 190 30 190 30 L 0 30 Q 0 30 0 30 L 0 0 Q 0 0 0 0 Z" stroke-miterlimit="10" stroke-width="2"/></g></g></g></g></g><g transform="matrix(1,0,0,1,573,218)"><g><g><rect fill="rgb(0,0,0)" stroke="none" x="0" y="0" width="172" height="14" fill-opacity="0"/></g></g><g><g><rect fill="rgb(0,0,0)" stroke="none" x="0" y="0" width="172" height="14" fill-opacity="0"/></g></g><g><g><rect fill="rgb(0,0,0)" stroke="none" x="64.234375" y="0" width="44" height="14" fill-opacity="0"/></g></g><g><g><rect fill="rgb(0,0,0)" stroke="none" x="64.234375" y="0" width="44" height="14" fill-opacity="0"/></g><text fill="rgb(0, 0, 0)" stroke="none" font-family="Arial" font-size="12px" font-style="normal" font-weight="normal" text-decoration="" line-height="14px" x="64" y="11">bar</text><text fill="rgb(0, 0, 0)" stroke="none" font-family="Arial" font-size="12px" font-style="normal" font-weight="normal" text-decoration="" line-height="14px" x="82" y="11">.</text><text fill="rgb(0, 0, 0)" stroke="none" font-family="Arial" font-size="12px" font-style="normal" font-weight="normal" text-decoration="" line-height="14px" x="85" y="11">html</text></g></g><g transform="translate(0,0) matrix(1,0,0,1,200,255)"><g><g transform="translate(0,0) scale(1.9,0.3)"><g><path fill="#9fc5e8" stroke="none" d="M 0 0 L 100 0 Q 100 0 100 0 L 100 100 Q 100 100 100 100 L 0 100 Q 0 100 0 100 L 0 0 Q 0 0 0 0 Z"/><g transform="scale(0.5263157894736842,3.3333333333333335)"><path fill="none" stroke="none" d="M 0 0 L 190 0 Q 190 0 190 0 L 190 30 Q 190 30 190 30 L 0 30 Q 0 30 0 30 L 0 0 Q 0 0 0 0 Z"/><path fill="none" stroke="#333333" d="M 0 0 M 0 0 L 190 0 Q 190 0 190 0 L 190 30 Q 190 30 190 30 L 0 30 Q 0 30 0 30 L 0 0 Q 0 0 0 0 Z" stroke-miterlimit="10" stroke-width="2"/></g></g></g></g></g><g transform="matrix(1,0,0,1,210,263)"><g><g><rect fill="rgb(0,0,0)" stroke="none" x="0" y="0" width="172" height="14" fill-opacity="0"/></g></g><g><g><rect fill="rgb(0,0,0)" stroke="none" x="0" y="0" width="172" height="14" fill-opacity="0"/></g></g><g><g><rect fill="rgb(0,0,0)" stroke="none" x="64.578125" y="0" width="44" height="14" fill-opacity="0"/></g></g><g><g><rect fill="rgb(0,0,0)" stroke="none" x="64.578125" y="0" width="44" height="14" fill-opacity="0"/></g><text fill="rgb(0, 0, 0)" stroke="none" font-family="Arial" font-size="12px" font-style="normal" font-weight="normal" text-decoration="" line-height="14px" x="65" y="11">foo</text><text fill="rgb(0, 0, 0)" stroke="none" font-family="Arial" font-size="12px" font-style="normal" font-weight="normal" text-decoration="" line-height="14px" x="81" y="11">.</text><text fill="rgb(0, 0, 0)" stroke="none" font-family="Arial" font-size="12px" font-style="normal" font-weight="normal" text-decoration="" line-height="14px" x="85" y="11">html</text></g></g><g transform="matrix(1,0,0,1,160.5,125.5)"><g transform="translate(0,0)"><g transform="translate(-159,-132) translate(-1.5,6.5) matrix(1,0,0,1,0,0)"><g><path fill="none" stroke="#ffffff" d="M 165 130 L 165 170 Q 165 180 175 180 L 200 180" stroke-miterlimit="10" stroke-width="2"/></g></g></g></g><g transform="matrix(1,0,0,1,160.5,125.5)"><g transform="translate(0,0)"><g transform="translate(-169,-131) translate(8.5,5.5) matrix(1,0,0,1,0,0)"><g><path fill="none" stroke="#ffffff" d="M 165 130 L 165 215 Q 165 225 175 225 L 200 225" stroke-miterlimit="10" stroke-width="2"/></g></g></g></g><g transform="matrix(1,0,0,1,160.5,125.5)"><g transform="translate(0,0)"><g transform="translate(-162,-130) translate(1.5,4.5) matrix(1,0,0,1,0,0)"><g><path fill="none" stroke="#ffffff" d="M 165 130 L 165 260 Q 165 270 175 270 L 200 270" stroke-miterlimit="10" stroke-width="2"/></g></g></g></g><g transform="matrix(1,0,0,1,160.5,45.5)"><g transform="translate(0,0)"><g transform="translate(-475,-49) translate(314.5,3.5) matrix(1,0,0,1,0,0)"><g><path fill="none" stroke="#ffffff" d="M 405 50 L 405 65 Q 405 75 395 75 L 175 75 Q 165 75 165 85 L 165 100" stroke-miterlimit="10" stroke-width="2"/></g></g></g></g><g transform="matrix(1,0,0,1,520.5,125.5)"><g transform="translate(0,0)"><g transform="translate(-572,-131) translate(51.5,5.5) matrix(1,0,0,1,0,0)"><g><path fill="none" stroke="#ffffff" d="M 525 130 L 525 170 Q 525 180 535 180 L 563.2083333333334 180" stroke-miterlimit="10" stroke-width="2"/></g></g></g></g><g transform="matrix(1,0,0,1,520.5,125.5)"><g transform="translate(0,0)"><g transform="translate(-574,-128) translate(53.5,2.5) matrix(1,0,0,1,0,0)"><g><path fill="none" stroke="#ffffff" d="M 525 130 L 525 215 Q 525 225 535 225 L 563.2083333333334 225" stroke-miterlimit="10" stroke-width="2"/></g></g></g></g><g transform="matrix(1,0,0,1,400.5,45.5)"><g transform="translate(0,0)"><g transform="translate(-476,-50) translate(75.5,4.5) matrix(1,0,0,1,0,0)"><g><path fill="none" stroke="#ffffff" d="M 405 50 L 405 65 Q 405 75 415 75 L 515 75 Q 525 75 525 85 L 525 100" stroke-miterlimit="10" stroke-width="2"/></g></g></g></g></g></svg>