<svg version="1.1" xmlns="http://www.w3.org/2000/svg" xmlns:xlink="http://www.w3.org/1999/xlink" width="598.2083333333333" height="580"><style xmlns="http://www.w3.org/1999/xhtml"></style><defs/><g transform="translate(0,0)"><g><rect fill="rgb(0,0,0)" stroke="none" x="0" y="0" width="598.2083333333333" height="580" fill-opacity="0"/></g><g transform="translate(0,0) matrix(1,0,0,1,70,30)"><g><g transform="translate(0,0) scale(1.9,0.3)"><g><path fill="#ffe599" stroke="none" d="M 0 0 L 100 0 Q 100 0 100 0 L 100 100 Q 100 100 100 100 L 0 100 Q 0 100 0 100 L 0 0 Q 0 0 0 0 Z"/><g transform="scale(0.5263157894736842,3.3333333333333335)"><path fill="none" stroke="none" d="M 0 0 L 190 0 Q 190 0 190 0 L 190 30 Q 190 30 190 30 L 0 30 Q 0 30 0 30 L 0 0 Q 0 0 0 0 Z"/><path fill="none" stroke="#333333" d="M 0 0 M 0 0 L 190 0 Q 190 0 190 0 L 190 30 Q 190 30 190 30 L 0 30 Q 0 30 0 30 L 0 0 Q 0 0 0 0 Z" stroke-miterlimit="10" stroke-width="2"/></g></g></g></g></g><g transform="matrix(1,0,0,1,80,38)"><g><g><rect fill="rgb(0,0,0)" stroke="none" x="0" y="0" width="172" height="14" fill-opacity="0"/></g></g><g><g><rect fill="rgb(0,0,0)" stroke="none" x="0" y="0" width="172" height="14" fill-opacity="0"/></g></g><g><g><rect fill="rgb(0,0,0)" stroke="none" x="56.5625" y="0" width="60" height="14" fill-opacity="0"/></g></g><g><g><rect fill="rgb(0,0,0)" stroke="none" x="56.5625" y="0" width="60" height="14" fill-opacity="0"/></g><text fill="rgb(0, 0, 0)" stroke="none" font-family="Arial" font-size="12px" font-style="normal" font-weight="normal" text-decoration="" line-height="14px" x="56.5625" y="11">Application</text></g></g><g transform="translate(0,0) matrix(1,0,0,1,191.79166666666663,100)"><g><g transform="translate(0,0) scale(1.9,0.3)"><g><path fill="#b6d7a8" stroke="none" d="M 0 0 L 100 0 Q 100 0 100 0 L 100 100 Q 100 100 100 100 L 0 100 Q 0 100 0 100 L 0 0 Q 0 0 0 0 Z"/><g transform="scale(0.5263157894736842,3.3333333333333335)"><path fill="none" stroke="none" d="M 0 0 L 190 0 Q 190 0 190 0 L 190 30 Q 190 30 190 30 L 0 30 Q 0 30 0 30 L 0 0 Q 0 0 0 0 Z"/><path fill="none" stroke="#333333" d="M 0 0 M 0 0 L 190 0 Q 190 0 190 0 L 190 30 Q 190 30 190 30 L 0 30 Q 0 30 0 30 L 0 0 Q 0 0 0 0 Z" stroke-miterlimit="10" stroke-width="2"/></g></g></g></g></g><g transform="matrix(1,0,0,1,201,108)"><g><g><rect fill="rgb(0,0,0)" stroke="none" x="0" y="0" width="172" height="14" fill-opacity="0"/></g></g><g><g><rect fill="rgb(0,0,0)" stroke="none" x="0" y="0" width="172" height="14" fill-opacity="0"/></g></g><g><g><rect fill="rgb(0,0,0)" stroke="none" x="56.90625" y="0" width="59" height="14" fill-opacity="0"/></g></g><g><g><rect fill="rgb(0,0,0)" stroke="none" x="56.90625" y="0" width="59" height="14" fill-opacity="0"/></g><text fill="rgb(0, 0, 0)" stroke="none" font-family="Arial" font-size="12px" font-style="normal" font-weight="normal" text-decoration="" line-height="14px" x="56.90625" y="11">Controllers</text></g></g><g transform="translate(0,0) matrix(1,0,0,1,191.79166666666663,270)"><g><g transform="translate(0,0) scale(1.9,0.3)"><g><path fill="#b6d7a8" stroke="none" d="M 0 0 L 100 0 Q 100 0 100 0 L 100 100 Q 100 100 100 100 L 0 100 Q 0 100 0 100 L 0 0 Q 0 0 0 0 Z"/><g transform="scale(0.5263157894736842,3.3333333333333335)"><path fill="none" stroke="none" d="M 0 0 L 190 0 Q 190 0 190 0 L 190 30 Q 190 30 190 30 L 0 30 Q 0 30 0 30 L 0 0 Q 0 0 0 0 Z"/><path fill="none" stroke="#333333" d="M 0 0 M 0 0 L 190 0 Q 190 0 190 0 L 190 30 Q 190 30 190 30 L 0 30 Q 0 30 0 30 L 0 0 Q 0 0 0 0 Z" stroke-miterlimit="10" stroke-width="2"/></g></g></g></g></g><g transform="matrix(1,0,0,1,201,278)"><g><g><rect fill="rgb(0,0,0)" stroke="none" x="0" y="0" width="172" height="14" fill-opacity="0"/></g></g><g><g><rect fill="rgb(0,0,0)" stroke="none" x="0" y="0" width="172" height="14" fill-opacity="0"/></g></g><g><g><rect fill="rgb(0,0,0)" stroke="none" x="62.90625" y="0" width="47" height="14" fill-opacity="0"/></g></g><g><g><rect fill="rgb(0,0,0)" stroke="none" x="62.90625" y="0" width="47" height="14" fill-opacity="0"/></g><text fill="rgb(0, 0, 0)" stroke="none" font-family="Arial" font-size="12px" font-style="normal" font-weight="normal" text-decoration="" line-height="14px" x="62.90625" y="11">Services</text></g></g><g transform="translate(0,0) matrix(1,0,0,1,191.79166666666663,420)"><g><g transform="translate(0,0) scale(1.9,0.3)"><g><path fill="#b6d7a8" stroke="none" d="M 0 0 L 100 0 Q 100 0 100 0 L 100 100 Q 100 100 100 100 L 0 100 Q 0 100 0 100 L 0 0 Q 0 0 0 0 Z"/><g transform="scale(0.5263157894736842,3.3333333333333335)"><path fill="none" stroke="none" d="M 0 0 L 190 0 Q 190 0 190 0 L 190 30 Q 190 30 190 30 L 0 30 Q 0 30 0 30 L 0 0 Q 0 0 0 0 Z"/><path fill="none" stroke="#333333" d="M 0 0 M 0 0 L 190 0 Q 190 0 190 0 L 190 30 Q 190 30 190 30 L 0 30 Q 0 30 0 30 L 0 0 Q 0 0 0 0 Z" stroke-miterlimit="10" stroke-width="2"/></g></g></g></g></g><g transform="matrix(1,0,0,1,201,428)"><g><g><rect fill="rgb(0,0,0)" stroke="none" x="0" y="0" width="172" height="14" fill-opacity="0"/></g></g><g><g><rect fill="rgb(0,0,0)" stroke="none" x="0" y="0" width="172" height="14" fill-opacity="0"/></g></g><g><g><rect fill="rgb(0,0,0)" stroke="none" x="69.90625" y="0" width="33" height="14" fill-opacity="0"/></g></g><g><g><rect fill="rgb(0,0,0)" stroke="none" x="69.90625" y="0" width="33" height="14" fill-opacity="0"/></g><text fill="rgb(0, 0, 0)" stroke="none" font-family="Arial" font-size="12px" font-style="normal" font-weight="normal" text-decoration="" line-height="14px" x="69.90625" y="11">Views</text></g></g><g transform="matrix(1,0,0,1,160.5,55.5)"><g transform="translate(0,0)"><g transform="translate(-164,-57) translate(3.5,1.5) matrix(1,0,0,1,0,0)"><g><path fill="none" stroke="#ffffff" d="M 165 60 L 165 268.7867965644036 Q 165 278.7867965644036 175 278.7867965644036 L 191.79166666666666 278.7867965644036" stroke-miterlimit="10" stroke-width="2"/></g></g></g></g><g transform="matrix(1,0,0,1,160.5,55.5)"><g transform="translate(0,0)"><g transform="translate(-160,-58) translate(-0.5,2.5) matrix(1,0,0,1,0,0)"><g><path fill="none" stroke="#ffffff" d="M 165 60 L 165 425 Q 165 435 175 435 L 191.79166666666663 435" stroke-miterlimit="10" stroke-width="2"/></g></g></g></g><g transform="matrix(1,0,0,1,160.5,55.5)"><g transform="translate(0,0)"><g transform="translate(-164,-60) translate(3.5,4.5) matrix(1,0,0,1,0,0)"><g><path fill="none" stroke="#ffffff" d="M 165 60 L 165 105 Q 165 115 175 115 L 191.79166666666663 115" stroke-miterlimit="10" stroke-width="2"/></g></g></g></g><g transform="translate(0,0) matrix(1,0,0,1,381.79166666666663,160)"><g><g transform="translate(0,0) scale(1.9,0.3)"><g><path fill="#9fc5e8" stroke="none" d="M 0 0 L 100 0 Q 100 0 100 0 L 100 100 Q 100 100 100 100 L 0 100 Q 0 100 0 100 L 0 0 Q 0 0 0 0 Z"/><g transform="scale(0.5263157894736842,3.3333333333333335)"><path fill="none" stroke="none" d="M 0 0 L 190 0 Q 190 0 190 0 L 190 30 Q 190 30 190 30 L 0 30 Q 0 30 0 30 L 0 0 Q 0 0 0 0 Z"/><path fill="none" stroke="#333333" d="M 0 0 M 0 0 L 190 0 Q 190 0 190 0 L 190 30 Q 190 30 190 30 L 0 30 Q 0 30 0 30 L 0 0 Q 0 0 0 0 Z" stroke-miterlimit="10" stroke-width="2"/></g></g></g></g></g><g transform="matrix(1,0,0,1,391,168)"><g><g><rect fill="rgb(0,0,0)" stroke="none" x="0" y="0" width="172" height="14" fill-opacity="0"/></g></g><g><g><rect fill="rgb(0,0,0)" stroke="none" x="0" y="0" width="172" height="14" fill-opacity="0"/></g></g><g><g><rect fill="rgb(0,0,0)" stroke="none" x="44.890625" y="0" width="83" height="14" fill-opacity="0"/></g></g><g><g><rect fill="rgb(0,0,0)" stroke="none" x="44.890625" y="0" width="83" height="14" fill-opacity="0"/></g><text fill="rgb(0, 0, 0)" stroke="none" font-family="Arial" font-size="12px" font-style="normal" font-weight="normal" text-decoration="" line-height="14px" x="45" y="11">foo</text><text fill="rgb(0, 0, 0)" stroke="none" font-family="Arial" font-size="12px" font-style="normal" font-weight="normal" text-decoration="" line-height="14px" x="62" y="11">-</text><text fill="rgb(0, 0, 0)" stroke="none" font-family="Arial" font-size="12px" font-style="normal" font-weight="normal" text-decoration="" line-height="14px" x="66" y="11">controller</text><text fill="rgb(0, 0, 0)" stroke="none" font-family="Arial" font-size="12px" font-style="normal" font-weight="normal" text-decoration="" line-height="14px" x="115" y="11">.</text><text fill="rgb(0, 0, 0)" stroke="none" font-family="Arial" font-size="12px" font-style="normal" font-weight="normal" text-decoration="" line-height="14px" x="118" y="11">js</text></g></g><g transform="translate(0,0) matrix(1,0,0,1,381.79166666666663,210)"><g><g transform="translate(0,0) scale(1.9,0.3)"><g><path fill="#9fc5e8" stroke="none" d="M 0 0 L 100 0 Q 100 0 100 0 L 100 100 Q 100 100 100 100 L 0 100 Q 0 100 0 100 L 0 0 Q 0 0 0 0 Z"/><g transform="scale(0.5263157894736842,3.3333333333333335)"><path fill="none" stroke="none" d="M 0 0 L 190 0 Q 190 0 190 0 L 190 30 Q 190 30 190 30 L 0 30 Q 0 30 0 30 L 0 0 Q 0 0 0 0 Z"/><path fill="none" stroke="#333333" d="M 0 0 M 0 0 L 190 0 Q 190 0 190 0 L 190 30 Q 190 30 190 30 L 0 30 Q 0 30 0 30 L 0 0 Q 0 0 0 0 Z" stroke-miterlimit="10" stroke-width="2"/></g></g></g></g></g><g transform="matrix(1,0,0,1,391,218)"><g><g><rect fill="rgb(0,0,0)" stroke="none" x="0" y="0" width="172" height="14" fill-opacity="0"/></g></g><g><g><rect fill="rgb(0,0,0)" stroke="none" x="0" y="0" width="172" height="14" fill-opacity="0"/></g></g><g><g><rect fill="rgb(0,0,0)" stroke="none" x="44.5625" y="0" width="84" height="14" fill-opacity="0"/></g></g><g><g><rect fill="rgb(0,0,0)" stroke="none" x="44.5625" y="0" width="84" height="14" fill-opacity="0"/></g><text fill="rgb(0, 0, 0)" stroke="none" font-family="Arial" font-size="12px" font-style="normal" font-weight="normal" text-decoration="" line-height="14px" x="45" y="11">bar</text><text fill="rgb(0, 0, 0)" stroke="none" font-family="Arial" font-size="12px" font-style="normal" font-weight="normal" text-decoration="" line-height="14px" x="62" y="11">-</text><text fill="rgb(0, 0, 0)" stroke="none" font-family="Arial" font-size="12px" font-style="normal" font-weight="normal" text-decoration="" line-height="14px" x="66" y="11">controller</text><text fill="rgb(0, 0, 0)" stroke="none" font-family="Arial" font-size="12px" font-style="normal" font-weight="normal" text-decoration="" line-height="14px" x="115" y="11">.</text><text fill="rgb(0, 0, 0)" stroke="none" font-family="Arial" font-size="12px" font-style="normal" font-weight="normal" text-decoration="" line-height="14px" x="119" y="11">js</text></g></g><g transform="matrix(1,0,0,1,282.29166666666663,125.5)"><g transform="translate(0,0)"><g transform="translate(-166.20833333333337,-61) translate(-116.08333333333326,-64.5) matrix(1,0,0,1,0,0)"><g><path fill="none" stroke="#ffffff" d="M 286.79166666666663 130 L 286.79166666666663 165 Q 286.79166666666663 175 296.79166666666663 175 L 381.79166666666663 175" stroke-miterlimit="10" stroke-width="2"/></g></g></g></g><g transform="matrix(1,0,0,1,282.29166666666663,125.5)"><g transform="translate(0,0)"><g transform="translate(-164.20833333333337,-61) translate(-118.08333333333326,-64.5) matrix(1,0,0,1,0,0)"><g><path fill="none" stroke="#ffffff" d="M 286.79166666666663 130 L 286.79166666666663 215 Q 286.79166666666663 225 296.79166666666663 225 L 381.79166666666663 225" stroke-miterlimit="10" stroke-width="2"/></g></g></g></g><g transform="translate(0,0) matrix(1,0,0,1,381.79166666666663,340)"><g><g transform="translate(0,0) scale(1.9,0.3)"><g><path fill="#9fc5e8" stroke="none" d="M 0 0 L 100 0 Q 100 0 100 0 L 100 100 Q 100 100 100 100 L 0 100 Q 0 100 0 100 L 0 0 Q 0 0 0 0 Z"/><g transform="scale(0.5263157894736842,3.3333333333333335)"><path fill="none" stroke="none" d="M 0 0 L 190 0 Q 190 0 190 0 L 190 30 Q 190 30 190 30 L 0 30 Q 0 30 0 30 L 0 0 Q 0 0 0 0 Z"/><path fill="none" stroke="#333333" d="M 0 0 M 0 0 L 190 0 Q 190 0 190 0 L 190 30 Q 190 30 190 30 L 0 30 Q 0 30 0 30 L 0 0 Q 0 0 0 0 Z" stroke-miterlimit="10" stroke-width="2"/></g></g></g></g></g><g transform="matrix(1,0,0,1,391,348)"><g><g><rect fill="rgb(0,0,0)" stroke="none" x="0" y="0" width="172" height="14" fill-opacity="0"/></g></g><g><g><rect fill="rgb(0,0,0)" stroke="none" x="0" y="0" width="172" height="14" fill-opacity="0"/></g></g><g><g><rect fill="rgb(0,0,0)" stroke="none" x="50.5625" y="0" width="72" height="14" fill-opacity="0"/></g></g><g><g><rect fill="rgb(0,0,0)" stroke="none" x="50.5625" y="0" width="72" height="14" fill-opacity="0"/></g><text fill="rgb(0, 0, 0)" stroke="none" font-family="Arial" font-size="12px" font-style="normal" font-weight="normal" text-decoration="" line-height="14px" x="51" y="11">foo</text><text fill="rgb(0, 0, 0)" stroke="none" font-family="Arial" font-size="12px" font-style="normal" font-weight="normal" text-decoration="" line-height="14px" x="67" y="11">-</text><text fill="rgb(0, 0, 0)" stroke="none" font-family="Arial" font-size="12px" font-style="normal" font-weight="normal" text-decoration="" line-height="14px" x="71" y="11">service</text><text fill="rgb(0, 0, 0)" stroke="none" font-family="Arial" font-size="12px" font-style="normal" font-weight="normal" text-decoration="" line-height="14px" x="109" y="11">.</text><text fill="rgb(0, 0, 0)" stroke="none" font-family="Arial" font-size="12px" font-style="normal" font-weight="normal" text-decoration="" line-height="14px" x="113" y="11">js</text></g></g><g transform="matrix(1,0,0,1,282.29166666666663,295.5)"><g transform="translate(0,0)"><g transform="translate(-164.20833333333337,-233) translate(-118.08333333333326,-62.5) matrix(1,0,0,1,0,0)"><g><path fill="none" stroke="#ffffff" d="M 286.79166666666663 300 L 286.79166666666663 345 Q 286.79166666666663 355 296.79166666666663 355 L 381.79166666666663 355" stroke-miterlimit="10" stroke-width="2"/></g></g></g></g><g transform="translate(0,0) matrix(1,0,0,1,381.79166666666663,480)"><g><g transform="translate(0,0) scale(1.9,0.3)"><g><path fill="#9fc5e8" stroke="none" d="M 0 0 L 100 0 Q 100 0 100 0 L 100 100 Q 100 100 100 100 L 0 100 Q 0 100 0 100 L 0 0 Q 0 0 0 0 Z"/><g transform="scale(0.5263157894736842,3.3333333333333335)"><path fill="none" stroke="none" d="M 0 0 L 190 0 Q 190 0 190 0 L 190 30 Q 190 30 190 30 L 0 30 Q 0 30 0 30 L 0 0 Q 0 0 0 0 Z"/><path fill="none" stroke="#333333" d="M 0 0 M 0 0 L 190 0 Q 190 0 190 0 L 190 30 Q 190 30 190 30 L 0 30 Q 0 30 0 30 L 0 0 Q 0 0 0 0 Z" stroke-miterlimit="10" stroke-width="2"/></g></g></g></g></g><g transform="matrix(1,0,0,1,391,488)"><g><g><rect fill="rgb(0,0,0)" stroke="none" x="0" y="0" width="172" height="14" fill-opacity="0"/></g></g><g><g><rect fill="rgb(0,0,0)" stroke="none" x="0" y="0" width="172" height="14" fill-opacity="0"/></g></g><g><g><rect fill="rgb(0,0,0)" stroke="none" x="64.578125" y="0" width="44" height="14" fill-opacity="0"/></g></g><g><g><rect fill="rgb(0,0,0)" stroke="none" x="64.578125" y="0" width="44" height="14" fill-opacity="0"/></g><text fill="rgb(0, 0, 0)" stroke="none" font-family="Arial" font-size="12px" font-style="normal" font-weight="normal" text-decoration="" line-height="14px" x="65" y="11">foo</text><text fill="rgb(0, 0, 0)" stroke="none" font-family="Arial" font-size="12px" font-style="normal" font-weight="normal" text-decoration="" line-height="14px" x="81" y="11">.</text><text fill="rgb(0, 0, 0)" stroke="none" font-family="Arial" font-size="12px" font-style="normal" font-weight="normal" text-decoration="" line-height="14px" x="85" y="11">html</text></g></g><g transform="translate(0,0) matrix(1,0,0,1,381.79166666666663,530)"><g><g transform="translate(0,0) scale(1.9,0.3)"><g><path fill="#9fc5e8" stroke="none" d="M 0 0 L 100 0 Q 100 0 100 0 L 100 100 Q 100 100 100 100 L 0 100 Q 0 100 0 100 L 0 0 Q 0 0 0 0 Z"/><g transform="scale(0.5263157894736842,3.3333333333333335)"><path fill="none" stroke="none" d="M 0 0 L 190 0 Q 190 0 190 0 L 190 30 Q 190 30 190 30 L 0 30 Q 0 30 0 30 L 0 0 Q 0 0 0 0 Z"/><path fill="none" stroke="#333333" d="M 0 0 M 0 0 L 190 0 Q 190 0 190 0 L 190 30 Q 190 30 190 30 L 0 30 Q 0 30 0 30 L 0 0 Q 0 0 0 0 Z" stroke-miterlimit="10" stroke-width="2"/></g></g></g></g></g><g transform="matrix(1,0,0,1,391,538)"><g><g><rect fill="rgb(0,0,0)" stroke="none" x="0" y="0" width="172" height="14" fill-opacity="0"/></g></g><g><g><rect fill="rgb(0,0,0)" stroke="none" x="0" y="0" width="172" height="14" fill-opacity="0"/></g></g><g><g><rect fill="rgb(0,0,0)" stroke="none" x="64.234375" y="0" width="44" height="14" fill-opacity="0"/></g></g><g><g><rect fill="rgb(0,0,0)" stroke="none" x="64.234375" y="0" width="44" height="14" fill-opacity="0"/></g><text fill="rgb(0, 0, 0)" stroke="none" font-family="Arial" font-size="12px" font-style="normal" font-weight="normal" text-decoration="" line-height="14px" x="64" y="11">bar</text><text fill="rgb(0, 0, 0)" stroke="none" font-family="Arial" font-size="12px" font-style="normal" font-weight="normal" text-decoration="" line-height="14px" x="82" y="11">.</text><text fill="rgb(0, 0, 0)" stroke="none" font-family="Arial" font-size="12px" font-style="normal" font-weight="normal" text-decoration="" line-height="14px" x="85" y="11">html</text></g></g><g transform="matrix(1,0,0,1,282.29166666666663,445.5)"><g transform="translate(0,0)"><g transform="translate(-157.20833333333337,-381) translate(-125.08333333333326,-64.5) matrix(1,0,0,1,0,0)"><g><path fill="none" stroke="#ffffff" d="M 286.79166666666663 450 L 286.79166666666663 485 Q 286.79166666666663 495 296.79166666666663 495 L 381.79166666666663 495" stroke-miterlimit="10" stroke-width="2"/></g></g></g></g><g transform="matrix(1,0,0,1,282.29166666666663,445.5)"><g transform="translate(0,0)"><g transform="translate(-169.20833333333337,-384) translate(-113.08333333333326,-61.5) matrix(1,0,0,1,0,0)"><g><path fill="none" stroke="#ffffff" d="M 286.79166666666663 450 L 286.79166666666663 535 Q 286.79166666666663 545 296.79166666666663 545 L 381.79166666666663 545" stroke-miterlimit="10" stroke-width="2"/></g></g></g></g></g></svg>